<svg width="100" height="100" viewBox="0 0 100 100" fill="none" xmlns="http://www.w3.org/2000/svg">
<rect width="100" height="100" fill="white"/>
<path d="M45.9771 83.5114C48.659 83.5114 51.3409 83.5114 54.0228 83.5114M54.0228 75.6142V76.9201M45.9771 75.6142V76.9201M60.8114 78.8477C60.8114 84.686 56.0272 89.4188 50.1257 89.4188C44.2241 89.4188 39.4399 84.686 39.4399 78.8477C39.4399 73.0095 44.2241 68.2767 50.1257 68.2767C56.0272 68.2767 60.8114 73.0095 60.8114 78.8477Z" stroke="#37BF5A" stroke-width="2" stroke-linecap="round"/>
<path d="M25.2971 45.3313C25.9257 46.5128 28.2012 47.6942 30.2629 47.6942C32.3246 47.6942 34.6 46.264 35.2286 45.1447M34.16 38.5534V39.8592M26.1143 38.5534V39.8592M40.9486 41.7869C40.9486 47.6251 36.1644 52.3579 30.2629 52.3579C24.3613 52.3579 19.5771 47.6251 19.5771 41.7869C19.5771 35.9486 24.3613 31.2158 30.2629 31.2158C36.1644 31.2158 40.9486 35.9486 40.9486 41.7869Z" stroke="#37BF5A" stroke-width="2" stroke-linecap="round"/>
<path d="M75.5829 38.5534V39.8592M67.5371 38.5534V39.8592M76.6514 46.5077C76.0228 45.3262 73.7474 44.1447 71.6857 44.1447C69.6239 44.1447 67.3485 45.5749 66.7199 46.6942M82.3714 41.7869C82.3714 47.6251 77.5873 52.3579 71.6857 52.3579C65.7842 52.3579 61 47.6251 61 41.7869C61 35.9486 65.7842 31.2158 71.6857 31.2158C77.5873 31.2158 82.3714 35.9486 82.3714 41.7869Z" stroke="#37BF5A" stroke-width="2" stroke-linecap="round"/>
<path d="M56.4038 2H43.3438L44.9211 9.0303H40L50.0315 20L60 9.0303H54.9527L56.4038 2Z" fill="white"/>
<path d="M87.4751 77.2932L86.6266 76.764L86.6266 76.764L87.4751 77.2932ZM12.5249 77.2932L13.3734 76.764L13.3734 76.764L12.5249 77.2932ZM36.9002 13.9535C37.4268 13.7871 37.7188 13.2253 37.5524 12.6987C37.386 12.1721 36.8242 11.8801 36.2976 12.0465L36.9002 13.9535ZM63.7024 12.0465C63.1758 11.8801 62.614 12.1721 62.4476 12.6987C62.2812 13.2253 62.5732 13.7871 63.0998 13.9535L63.7024 12.0465ZM43.3438 2V1C43.0402 1 42.7529 1.13799 42.5632 1.37507C42.3734 1.61214 42.3016 1.9226 42.3681 2.21891L43.3438 2ZM56.4038 2L57.3831 2.20215C57.4439 1.90768 57.369 1.6015 57.1791 1.36839C56.9892 1.13529 56.7045 1 56.4038 1V2ZM54.9527 9.0303L53.9733 8.82816C53.9125 9.12262 53.9875 9.4288 54.1774 9.66191C54.3673 9.89502 54.652 10.0303 54.9527 10.0303V9.0303ZM60 9.0303L60.7401 9.70283C61.0062 9.40992 61.0746 8.98759 60.9145 8.62566C60.7543 8.26373 60.3958 8.0303 60 8.0303V9.0303ZM50.0315 20L49.2936 20.6748C49.4834 20.8824 49.7519 21.0004 50.0331 21C50.3144 20.9996 50.5825 20.8807 50.7716 20.6725L50.0315 20ZM40 9.0303V8.0303C39.6036 8.0303 39.2447 8.26439 39.0849 8.62709C38.9251 8.9898 38.9946 9.41266 39.262 9.70515L40 9.0303ZM44.9211 9.0303V10.0303C45.2248 10.0303 45.512 9.89231 45.7018 9.65524C45.8916 9.41816 45.9634 9.1077 45.8969 8.81139L44.9211 9.0303ZM93 54.4721C93 62.6478 90.6684 70.2824 86.6266 76.764L88.3236 77.8223C92.5571 71.0333 95 63.0338 95 54.4721H93ZM86.6266 76.764C79.0552 88.9059 65.485 97 50 97V99C66.1972 99 80.3988 90.5311 88.3236 77.8223L86.6266 76.764ZM50 97C34.515 97 20.9448 88.9059 13.3734 76.764L11.6764 77.8223C19.6012 90.5311 33.8028 99 50 99V97ZM13.3734 76.764C9.33164 70.2824 7 62.6478 7 54.4721H5C5 63.0338 7.44293 71.0333 11.6764 77.8223L13.3734 76.764ZM7 54.4721C7 35.5098 19.5509 19.4354 36.9002 13.9535L36.2976 12.0465C18.1522 17.7799 5 34.6005 5 54.4721H7ZM63.0998 13.9535C80.4491 19.4354 93 35.5098 93 54.4721H95C95 34.6005 81.8478 17.7799 63.7024 12.0465L63.0998 13.9535ZM43.3438 3H56.4038V1H43.3438V3ZM55.4244 1.79785L53.9733 8.82816L55.932 9.23245L57.3831 2.20215L55.4244 1.79785ZM54.9527 10.0303H60V8.0303H54.9527V10.0303ZM59.2599 8.35778L49.2915 19.3275L50.7716 20.6725L60.7401 9.70283L59.2599 8.35778ZM50.7695 19.3252L40.738 8.35546L39.262 9.70515L49.2936 20.6748L50.7695 19.3252ZM40 10.0303H44.9211V8.0303H40V10.0303ZM45.8969 8.81139L44.3196 1.78109L42.3681 2.21891L43.9454 9.24922L45.8969 8.81139Z" fill="#37BF5A"/>
<path d="M49.9384 50.028C47.4914 50.028 45.5077 51.9905 45.5077 54.4113C45.5077 55.2028 45.7198 55.9454 46.0908 56.5863M49.9384 50.028C52.3855 50.028 54.3692 51.9905 54.3692 54.4113C54.3692 55.2028 54.1571 55.9454 53.7861 56.5863M49.9384 50.028L50 26M53.7861 56.5863C53.0224 57.9056 51.5853 58.7945 49.9384 58.7945C48.2915 58.7945 46.8545 57.9056 46.0908 56.5863M53.7861 56.5863L74 69.0107M46.0908 56.5863L25.2971 69.414" stroke="#37BF5A" stroke-width="2" stroke-linecap="round"/>
</svg>
